<?xml version="1.0" encoding="iso-8859-1"?>
<!-- Generator: Adobe Illustrator 19.0.0, SVG Export Plug-In . SVG Version: 6.00 Build 0)  -->
<svg version="1.1" id="Layer_1" xmlns="http://www.w3.org/2000/svg" xmlns:xlink="http://www.w3.org/1999/xlink" x="0px"
     y="0px"
     viewBox="0 0 512 512" style="enable-background:new 0 0 512 512;" xml:space="preserve">
<g>
	<path style="fill:#BC5949;" d="M284.233,311.303c-17.576,9.693-38.894,9.693-56.47,0L15.998,194.47H8.83v276.401
		c0,17.982,14.574,32.565,32.556,32.565H470.61c17.982,0,32.565-14.583,32.565-32.565V194.47h-7.177L284.233,311.303z"/>
    <g>
		<path style="fill:#EF705D;" d="M467.862,298.871c-4.882,0-8.828-3.955-8.828-8.828v-39.724c0-4.873,3.946-8.828,8.828-8.828
			c4.882,0,8.828,3.955,8.828,8.828v39.724C476.69,294.916,472.744,298.871,467.862,298.871"/>
        <path style="fill:#EF705D;" d="M467.862,397.695c-4.882,0-8.828-3.955-8.828-8.828v-59.295c0-4.873,3.946-8.828,8.828-8.828
			c4.882,0,8.828,3.955,8.828,8.828v59.295C476.69,393.74,472.744,397.695,467.862,397.695"/>
        <path style="fill:#EF705D;" d="M467.862,476.949h-39.724c-4.882,0-8.828-3.955-8.828-8.828c0-4.873,3.946-8.828,8.828-8.828
			h30.897v-30.897c0-4.873,3.946-8.828,8.828-8.828c4.882,0,8.828,3.955,8.828,8.828v39.724
			C476.69,472.994,472.744,476.949,467.862,476.949"/>
        <path style="fill:#EF705D;" d="M227.31,476.949h-86.069c-4.882,0-8.828-3.955-8.828-8.828c0-4.873,3.946-8.828,8.828-8.828h86.069
			c4.882,0,8.828,3.955,8.828,8.828C236.138,472.994,232.192,476.949,227.31,476.949 M370.759,476.949H284.69
			c-4.882,0-8.828-3.955-8.828-8.828c0-4.873,3.946-8.828,8.828-8.828h86.069c4.882,0,8.828,3.955,8.828,8.828
			C379.586,472.994,375.64,476.949,370.759,476.949"/>
        <path style="fill:#EF705D;" d="M83.862,476.949H44.138c-4.882,0-8.828-3.955-8.828-8.828v-39.724c0-4.873,3.946-8.828,8.828-8.828
			s8.828,3.955,8.828,8.828v30.897h30.897c4.882,0,8.828,3.955,8.828,8.828C92.69,472.994,88.744,476.949,83.862,476.949"/>
        <path style="fill:#EF705D;" d="M44.138,397.695c-4.882,0-8.828-3.955-8.828-8.828v-59.295c0-4.873,3.946-8.828,8.828-8.828
			s8.828,3.955,8.828,8.828v59.295C52.966,393.74,49.02,397.695,44.138,397.695"/>
        <path style="fill:#EF705D;" d="M44.138,298.871c-4.882,0-8.828-3.955-8.828-8.828v-39.724c0-4.873,3.946-8.828,8.828-8.828
			s8.828,3.955,8.828,8.828v39.724C52.966,294.916,49.02,298.871,44.138,298.871"/>
        <path style="fill:#EF705D;" d="M512,202.771L284.231,328.432c-17.567,9.702-38.894,9.702-56.461,0L0,202.771V41.129
			C0,23.148,14.574,8.565,32.565,8.565h446.87C497.426,8.565,512,23.148,512,41.129V202.771z"/>
	</g>
    <path style="fill:#BC5949;" d="M300.138,149.806c0,24.373-19.765,44.138-44.138,44.138s-44.138-19.765-44.138-44.138
		s19.765-44.138,44.138-44.138S300.138,125.433,300.138,149.806"/>
</g>
    <g>
</g>
    <g>
</g>
    <g>
</g>
    <g>
</g>
    <g>
</g>
    <g>
</g>
    <g>
</g>
    <g>
</g>
    <g>
</g>
    <g>
</g>
    <g>
</g>
    <g>
</g>
    <g>
</g>
    <g>
</g>
    <g>
</g>
</svg>
